{
    "asset" : {
        "generator" : "Khronos glTF Blender I/O v1.6.16",
        "version" : "2.0"
    },
    "scene" : 0,
    "scenes" : [
        {
            "name" : "Scene",
            "nodes" : [
                0,
                1,
                2,
                3
            ]
        }
    ],
    "nodes" : [
        {
            "name" : "Light",
            "rotation" : [
                0.16907575726509094,
                0.27217137813568115,
                0.7558803558349609,
                0.570947527885437
            ],
            "translation" : [
                4.076245307922363,
                1.0054539442062378,
                5.903861999511719
            ]
        },
        {
            "camera" : 0,
            "name" : "Camera",
            "rotation" : [
                0.483536034822464,
                0.20870360732078552,
                0.33687159419059753,
                0.7804827094078064
            ],
            "translation" : [
                7.358891487121582,
                -6.925790786743164,
                4.958309173583984
            ]
        },
        {
            "camera" : 1,
            "name" : "Camera~1",
            "rotation" : [
                0,
                -0.7071068286895752,
                -0.7071067094802856,
                5.338507236274381e-08
            ],
            "translation" : [
                -2.4158507585525513e-06,
                -0.800900399684906,
                0
            ]
        },
        {
            "mesh" : 0,
            "name" : "Body_1",
            "scale" : [
                1.3426783084869385,
                1.3426783084869385,
                1.3426783084869385
            ]
        }
    ],
    "cameras" : [
        {
            "name" : "Camera",
            "perspective" : {
                "aspectRatio" : 1.7777777777777777,
                "yfov" : 0.39959648408210363,
                "zfar" : 100,
                "znear" : 0.10000000149011612
            },
            "type" : "perspective"
        },
        {
            "name" : "Camera~1",
            "perspective" : {
                "aspectRatio" : 1.7777777777777777,
                "yfov" : 0.3310643292823015,
                "zfar" : 4000,
                "znear" : 0.0010000000474974513
            },
            "type" : "perspective"
        }
    ],
    "materials" : [
        {
            "doubleSided" : true,
            "name" : "Mtl",
            "pbrMetallicRoughness" : {
                "baseColorFactor" : [
                    1,
                    0.11879356950521469,
                    0.1106046661734581,
                    1
                ],
                "roughnessFactor" : 0.5527864098548889
            }
        }
    ],
    "meshes" : [
        {
            "name" : "Body_1",
            "primitives" : [
                {
                    "attributes" : {
                        "POSITION" : 0,
                        "NORMAL" : 1,
                        "TEXCOORD_0" : 2
                    },
                    "indices" : 3,
                    "material" : 0
                }
            ]
        }
    ],
    "accessors" : [
        {
            "bufferView" : 0,
            "componentType" : 5126,
            "count" : 5615,
            "max" : [
                0.37978872656822205,
                0.1394316554069519,
                1.9715816974639893
            ],
            "min" : [
                -0.3823416829109192,
                -0.15828090906143188,
                0.11441203206777573
            ],
            "type" : "VEC3"
        },
        {
            "bufferView" : 1,
            "componentType" : 5126,
            "count" : 5615,
            "type" : "VEC3"
        },
        {
            "bufferView" : 2,
            "componentType" : 5126,
            "count" : 5615,
            "type" : "VEC2"
        },
        {
            "bufferView" : 3,
            "componentType" : 5123,
            "count" : 18342,
            "type" : "SCALAR"
        }
    ],
    "bufferViews" : [
        {
            "buffer" : 0,
            "byteLength" : 67380,
            "byteOffset" : 0
        },
        {
            "buffer" : 0,
            "byteLength" : 67380,
            "byteOffset" : 67380
        },
        {
            "buffer" : 0,
            "byteLength" : 44920,
            "byteOffset" : 134760
        },
        {
            "buffer" : 0,
            "byteLength" : 36684,
            "byteOffset" : 179680
        }
    ],
    "buffers" : [
        {
            "byteLength" : 216364,
            "uri" : "human.bin"
        }
    ]
}
